<?xml version="1.0" encoding="UTF-8" standalone="no"?>
<!DOCTYPE svg PUBLIC "-//W3C//DTD SVG 1.1//EN" "http://www.w3.org/Graphics/SVG/1.1/DTD/svg11.dtd">
<svg width="100%" height="100%" viewBox="0 0 4309 4286" version="1.1" xmlns="http://www.w3.org/2000/svg" xmlns:xlink="http://www.w3.org/1999/xlink" xml:space="preserve" xmlns:serif="http://www.serif.com/" style="fill-rule:evenodd;clip-rule:evenodd;stroke-linejoin:round;stroke-miterlimit:2;">
    <g transform="matrix(0.911426,0,0,0.911426,-540.014502,-337.82769)">
        <path d="M1647.99,745.708C2059.6,918.083 2758.683,1358.959 2758.683,1972.21C2758.683,2392.417 2417.528,2733.572 1997.321,2733.572C1577.114,2733.572 1235.959,2392.417 1235.959,1972.21C1235.959,1358.959 1890.308,1200.235 1647.99,745.708Z" style="fill:rgb(0,113,233);"/>
    </g>
    <g transform="matrix(1.010387,0,0,1.010387,-737.674871,-98.666943)">
        <path d="M2115.067,1326.418C2115.171,1328.449 2115.224,1330.494 2115.224,1332.55C2115.224,1397.622 2062.394,1450.451 1997.323,1450.451C1932.251,1450.451 1879.422,1397.622 1879.422,1332.55C1879.422,1273.172 1923.412,1223.986 1980.553,1215.835C1991.016,1195.985 1994.81,1173.389 1977.287,1134.829C2046.256,1183.552 2115.224,1227.964 2115.224,1321.098C2115.224,1322.884 2115.171,1324.658 2115.067,1326.418Z" style="fill:rgb(235,235,235);"/>
    </g>
    <g transform="matrix(1.010387,0,0,1.010387,-784.112183,-199.442883)">
        <path d="M1691.577,1661.866L1768.124,1661.866C1768.124,1813.831 1891.317,1937.024 2043.283,1937.024C2195.249,1937.024 2318.441,1813.831 2318.441,1661.866L2394.989,1661.866C2394.989,1856.108 2237.525,2013.572 2043.283,2013.572C1849.041,2013.572 1691.577,1856.108 1691.577,1661.866Z" style="fill:rgb(235,235,235);"/>
    </g>
    <g transform="matrix(27.519515,0,0,27.519515,-89252.619706,-27597.784421)">
        <g transform="matrix(50,0,0,50,3252.204221,1113.602066)">
            <path d="M0.07,0.2L0.07,-0.496L0.194,-0.496L0.194,-0.436L0.212,-0.436C0.223,-0.455 0.241,-0.472 0.265,-0.487C0.289,-0.503 0.323,-0.51 0.368,-0.51C0.408,-0.51 0.445,-0.5 0.479,-0.48C0.513,-0.461 0.54,-0.432 0.561,-0.394C0.582,-0.356 0.592,-0.31 0.592,-0.256L0.592,-0.24C0.592,-0.186 0.582,-0.14 0.561,-0.102C0.54,-0.064 0.513,-0.035 0.479,-0.015C0.445,0.004 0.408,0.014 0.368,0.014C0.338,0.014 0.313,0.011 0.292,0.004C0.272,-0.004 0.256,-0.012 0.243,-0.024C0.231,-0.035 0.221,-0.046 0.214,-0.057L0.196,-0.057L0.196,0.2L0.07,0.2ZM0.33,-0.096C0.369,-0.096 0.402,-0.108 0.427,-0.134C0.453,-0.159 0.466,-0.195 0.466,-0.243L0.466,-0.253C0.466,-0.301 0.453,-0.337 0.427,-0.362C0.401,-0.388 0.369,-0.4 0.33,-0.4C0.291,-0.4 0.259,-0.388 0.233,-0.362C0.207,-0.337 0.194,-0.301 0.194,-0.253L0.194,-0.243C0.194,-0.195 0.207,-0.159 0.233,-0.134C0.259,-0.108 0.291,-0.096 0.33,-0.096Z" style="fill:white;fill-rule:nonzero;"/>
        </g>
        <g transform="matrix(50,0,0,50,3284.104221,1113.602066)">
            <path d="M0.224,0.014C0.189,0.014 0.157,0.008 0.129,-0.005C0.101,-0.017 0.079,-0.035 0.062,-0.059C0.046,-0.082 0.038,-0.111 0.038,-0.145C0.038,-0.179 0.046,-0.208 0.062,-0.231C0.079,-0.254 0.101,-0.271 0.131,-0.283C0.16,-0.294 0.193,-0.3 0.23,-0.3L0.366,-0.3L0.366,-0.328C0.366,-0.351 0.359,-0.37 0.344,-0.386C0.329,-0.401 0.306,-0.408 0.274,-0.408C0.243,-0.408 0.219,-0.401 0.204,-0.387C0.189,-0.372 0.179,-0.354 0.174,-0.331L0.058,-0.37C0.066,-0.395 0.079,-0.419 0.097,-0.44C0.114,-0.46 0.138,-0.478 0.168,-0.49C0.197,-0.503 0.233,-0.51 0.276,-0.51C0.341,-0.51 0.393,-0.494 0.431,-0.461C0.469,-0.428 0.488,-0.381 0.488,-0.319L0.488,-0.134C0.488,-0.114 0.497,-0.104 0.516,-0.104L0.556,-0.104L0.556,-0L0.472,-0C0.447,-0 0.427,-0.006 0.411,-0.018C0.395,-0.03 0.387,-0.046 0.387,-0.066L0.387,-0.067L0.368,-0.067C0.365,-0.059 0.359,-0.049 0.35,-0.036C0.341,-0.023 0.326,-0.011 0.306,-0.001C0.286,0.009 0.259,0.014 0.224,0.014ZM0.246,-0.088C0.281,-0.088 0.31,-0.098 0.333,-0.118C0.355,-0.137 0.366,-0.163 0.366,-0.196L0.366,-0.206L0.239,-0.206C0.216,-0.206 0.197,-0.201 0.184,-0.191C0.171,-0.181 0.164,-0.167 0.164,-0.149C0.164,-0.131 0.171,-0.116 0.185,-0.105C0.199,-0.094 0.219,-0.088 0.246,-0.088Z" style="fill:white;fill-rule:nonzero;"/>
        </g>
        <g transform="matrix(50,0,0,50,3312.804221,1113.602066)">
            <path d="M0.276,0.014C0.211,0.014 0.158,0 0.117,-0.028C0.076,-0.056 0.051,-0.096 0.042,-0.148L0.158,-0.178C0.163,-0.155 0.171,-0.136 0.181,-0.123C0.193,-0.11 0.206,-0.1 0.223,-0.095C0.239,-0.089 0.257,-0.086 0.276,-0.086C0.305,-0.086 0.327,-0.091 0.341,-0.102C0.355,-0.112 0.362,-0.125 0.362,-0.14C0.362,-0.155 0.355,-0.167 0.342,-0.176C0.329,-0.184 0.307,-0.191 0.278,-0.196L0.25,-0.201C0.215,-0.208 0.184,-0.217 0.155,-0.229C0.126,-0.24 0.103,-0.256 0.086,-0.277C0.069,-0.298 0.06,-0.324 0.06,-0.357C0.06,-0.406 0.078,-0.444 0.114,-0.471C0.15,-0.497 0.197,-0.51 0.256,-0.51C0.311,-0.51 0.357,-0.498 0.394,-0.473C0.431,-0.448 0.455,-0.416 0.466,-0.376L0.349,-0.34C0.344,-0.365 0.333,-0.383 0.317,-0.394C0.3,-0.405 0.28,-0.41 0.256,-0.41C0.232,-0.41 0.214,-0.406 0.201,-0.398C0.188,-0.389 0.182,-0.378 0.182,-0.363C0.182,-0.347 0.189,-0.335 0.202,-0.328C0.215,-0.32 0.233,-0.314 0.256,-0.31L0.284,-0.305C0.321,-0.298 0.355,-0.29 0.386,-0.279C0.416,-0.268 0.44,-0.252 0.458,-0.232C0.475,-0.211 0.484,-0.184 0.484,-0.149C0.484,-0.097 0.465,-0.057 0.427,-0.029C0.39,-0 0.339,0.014 0.276,0.014Z" style="fill:white;fill-rule:nonzero;"/>
        </g>
        <g transform="matrix(50,0,0,50,3338.504221,1113.602066)">
            <path d="M0.26,-0C0.227,-0 0.201,-0.01 0.18,-0.03C0.16,-0.051 0.15,-0.078 0.15,-0.112L0.15,-0.392L0.026,-0.392L0.026,-0.496L0.15,-0.496L0.15,-0.65L0.276,-0.65L0.276,-0.496L0.412,-0.496L0.412,-0.392L0.276,-0.392L0.276,-0.134C0.276,-0.114 0.285,-0.104 0.304,-0.104L0.4,-0.104L0.4,-0L0.26,-0Z" style="fill:white;fill-rule:nonzero;"/>
        </g>
        <g transform="matrix(50,0,0,50,3360.404221,1113.602066)">
            <path d="M0.296,0.014C0.247,0.014 0.203,0.003 0.166,-0.018C0.128,-0.038 0.098,-0.068 0.077,-0.106C0.056,-0.145 0.046,-0.19 0.046,-0.242L0.046,-0.254C0.046,-0.306 0.056,-0.351 0.077,-0.39C0.098,-0.428 0.127,-0.458 0.164,-0.479C0.201,-0.499 0.245,-0.51 0.294,-0.51C0.343,-0.51 0.385,-0.499 0.421,-0.478C0.457,-0.456 0.485,-0.426 0.505,-0.388C0.525,-0.349 0.535,-0.305 0.535,-0.254L0.535,-0.211L0.174,-0.211C0.175,-0.177 0.188,-0.149 0.212,-0.128C0.236,-0.107 0.265,-0.096 0.3,-0.096C0.335,-0.096 0.361,-0.104 0.378,-0.119C0.395,-0.134 0.407,-0.151 0.416,-0.17L0.519,-0.116C0.51,-0.099 0.496,-0.08 0.479,-0.06C0.461,-0.039 0.437,-0.022 0.408,-0.007C0.379,0.007 0.341,0.014 0.296,0.014ZM0.175,-0.305L0.407,-0.305C0.404,-0.334 0.393,-0.357 0.372,-0.374C0.352,-0.391 0.326,-0.4 0.293,-0.4C0.259,-0.4 0.232,-0.391 0.212,-0.374C0.192,-0.357 0.18,-0.334 0.175,-0.305Z" style="fill:white;fill-rule:nonzero;"/>
        </g>
        <g transform="matrix(50,0,0,50,3389.254221,1113.602066)">
        </g>
    </g>
    <g transform="matrix(18.548479,0,0,18.548479,-66277.165906,-23583.23928)">
        <g transform="matrix(50,0,0,50,3741.754231,1473.602305)">
        </g>
        <text x="3602.204px" y="1473.602px" style="font-family:'SpaceGrotesk-Medium', 'Space Grotesk';font-weight:500;font-size:50px;fill:rgb(138,135,126);">dr<tspan x="3652.704px " y="1473.602px ">o</tspan>ps</text>
    </g>
</svg>
